<svg id="Capa_1" enable-background="new 0 0 512 512" height="512" viewBox="0 0 512 512" width="512" xmlns="http://www.w3.org/2000/svg" xmlns:xlink="http://www.w3.org/1999/xlink"><linearGradient id="SVGID_1_" gradientUnits="userSpaceOnUse" x1="85.416" x2="420.815" y1="508.233" y2="172.834"><stop offset="0" stop-color="#fff2ed" stop-opacity="0"/><stop offset=".2938" stop-color="#ffe9dd" stop-opacity=".373"/><stop offset=".7874" stop-color="#ffd5ba"/></linearGradient><linearGradient id="SVGID_00000030463177669913990030000016027592752086500281_" gradientUnits="userSpaceOnUse" x1="256" x2="256" y1="390.128" y2="183.75"><stop offset="0" stop-color="#ff4d4d" stop-opacity=".4"/><stop offset=".1463" stop-color="#ff4d4d" stop-opacity=".342"/><stop offset="1" stop-color="#ff4d4d" stop-opacity="0"/></linearGradient><g><g><path d="m359.194 131.39c-24.472-12.107-52.747-26.018-61.248-51.963-12.635-38.564-32.417-78.605-72.724-43.927-30.898 26.583-19.935 73.194-21.626 109.924-4.86 105.577-136.861 114.334-185.078 188.084-63.494 97.117 51.197 174.091 119.571 129.587 37.429-24.362 78.814-39.8 121.083-17.367 95.121 57.509 188.348 68.349 237.746-26.648 48.914-94.068-27.511-233.165-137.724-287.69z" fill="url(#SVGID_1_)"/></g><g><g><g><g><g><g><path d="m309.691 249.362c-18.065 0-89.316 0-107.381 0-28.027 0-38.174-19.812-38.174-19.812v114.777s10.148-19.812 38.174-19.812h107.381c28.027 0 38.174 19.812 38.174 19.812v-114.777s-10.148 19.812-38.174 19.812z" fill="#ff9c33"/><g fill="#6c6cff"><path d="m184.97 246.434v81.01c-15.01 5.51-20.84 16.88-20.84 16.88v-114.77s5.83 11.37 20.84 16.88z"/><path d="m347.87 229.554v114.77s-5.83-11.37-20.84-16.88v-81.01c15.01-5.51 20.84-16.88 20.84-16.88z"/></g></g><g><g><path d="m65.08 214.351h-10.116c-8.154 0-15.344 5.486-17.348 13.39-4.652 18.35-7.215 38.309-7.215 59.198s2.564 40.848 7.215 59.198c2.004 7.904 9.193 13.39 17.347 13.39h10.117z" fill="#9393ff"/><path d="m30.401 286.939c0 20.889 2.564 40.848 7.215 59.198 2.004 7.904 9.193 13.39 17.347 13.39h10.117v-72.588z" fill="#6c6cff"/></g><path d="m59.072 364.57c0 8.489 5.359 16.052 13.365 18.876 12.254 4.322 25.432 6.682 39.166 6.682s26.912-2.36 39.166-6.682c8.006-2.824 13.365-10.386 13.365-18.876v-155.263c0-8.489-5.359-16.052-13.365-18.876-12.254-4.322-25.432-6.682-39.166-6.682s-26.912 2.36-39.166 6.682c-8.006 2.824-13.365 10.386-13.365 18.876z" fill="#b2b2ff"/><path d="m164.13 209.309v24.84c-3.44.65-6.98.99-10.61.99-29.3 0-53.44-22.05-56.73-50.46 4.85-.61 9.8-.93 14.81-.93 13.74 0 26.92 2.36 39.17 6.68 8.01 2.83 13.36 10.39 13.36 18.88z" fill="#9393ff"/><path d="m134.74 186.059v201.76c-6.57 1.3-13.33 2.08-20.25 2.25v-206.26c6.92.17 13.68.95 20.25 2.25z" fill="#ff9c33"/><path d="m134.74 186.059v45.92c-7.61-2.65-14.49-6.86-20.25-12.25v-35.92c6.92.17 13.68.95 20.25 2.25z" fill="#ff8a00"/></g><g><g><g><path d="m446.92 214.351h10.116c8.154 0 15.344 5.486 17.348 13.39 4.652 18.35 7.215 38.309 7.215 59.198s-2.564 40.848-7.215 59.198c-2.004 7.904-9.193 13.39-17.347 13.39h-10.117z" fill="#9393ff"/><path d="m481.599 286.939c0 20.889-2.564 40.848-7.215 59.198-2.004 7.904-9.193 13.39-17.347 13.39h-10.117v-72.588z" fill="#6c6cff"/></g></g><path d="m452.928 364.57c0 8.489-5.359 16.052-13.365 18.876-12.254 4.322-25.432 6.682-39.166 6.682s-26.912-2.36-39.166-6.682c-8.006-2.824-13.365-10.386-13.365-18.876v-155.263c0-8.489 5.359-16.052 13.365-18.876 12.254-4.322 25.432-6.682 39.166-6.682s26.912 2.36 39.166 6.682c8.006 2.824 13.365 10.386 13.365 18.876z" fill="#b2b2ff"/><path d="m377.26 186.062c6.57-1.305 13.331-2.083 20.245-2.25v206.254c-6.915-.167-13.675-.945-20.245-2.25z" fill="#ff9c33"/></g></g><g><g><g fill="#ff4d4d"><path d="m224.19 266.908h-5.444c-2.761 0-5 2.238-5 5s2.239 5 5 5h.444v25.062c0 2.762 2.239 5 5 5s5-2.238 5-5v-30.062c0-2.762-2.239-5-5-5z"/><path d="m261.854 296.749h-5.184c3.195-3.311 6.24-7.033 7.594-10.308 1.886-4.565 1.446-9.633-1.177-13.556-2.448-3.66-6.42-5.759-10.898-5.759-7.412 0-13.442 6.03-13.442 13.442 0 2.762 2.239 5 5 5s5-2.238 5-5c0-1.898 1.544-3.442 3.442-3.442 1.131 0 2.001.443 2.586 1.318.753 1.125.848 2.726.248 4.177-1.561 3.776-9.364 11.178-14.406 15.228-1.654 1.329-2.291 3.558-1.586 5.559.704 2.001 2.594 3.341 4.716 3.341h18.108c2.761 0 5-2.238 5-5s-2.24-5-5.001-5z"/></g></g><path d="m293.255 306.749h-12.437c-2.761 0-5-2.239-5-5 0-2.761 2.239-5 5-5h12.437c2.761 0 5 2.239 5 5 0 2.762-2.239 5-5 5z" fill="#ff4d4d"/></g></g></g><g><path d="m474.383 227.741c-2.004-7.905-9.193-13.39-17.348-13.39h-4.108v-5.043c0-8.489-5.359-16.052-13.365-18.875-12.254-4.322-25.432-6.682-39.166-6.682s-26.912 2.36-39.166 6.682c-8.006 2.824-13.365 10.386-13.365 18.875v20.243s-10.148 19.812-38.174 19.812c-18.065 0-89.316 0-107.381 0-28.027 0-38.174-19.812-38.174-19.812v-20.243c0-8.489-5.359-16.052-13.365-18.875-12.254-4.322-25.432-6.682-39.166-6.682s-26.912 2.36-39.166 6.682c-8.006 2.824-13.365 10.386-13.365 18.875v5.043h-4.108c-8.154 0-15.344 5.486-17.348 13.39-4.652 18.349-7.215 38.309-7.215 59.198s2.564 40.848 7.216 59.198c2.004 7.905 9.193 13.39 17.347 13.39h4.108v5.043c0 8.489 5.359 16.052 13.365 18.875 12.254 4.322 25.432 6.682 39.166 6.682s26.912-2.36 39.166-6.682c8.006-2.824 13.365-10.386 13.365-18.875v-20.243s10.148-19.812 38.174-19.812h107.381c28.027 0 38.174 19.812 38.174 19.812v20.243c0 8.489 5.359 16.052 13.365 18.875 12.254 4.322 25.432 6.682 39.166 6.682s26.912-2.36 39.166-6.682c8.006-2.824 13.365-10.386 13.365-18.875v-5.043h4.108c8.154 0 15.344-5.486 17.347-13.39 4.652-18.349 7.216-38.308 7.216-59.198s-2.563-40.849-7.215-59.198z" fill="url(#SVGID_00000030463177669913990030000016027592752086500281_)"/><g><circle cx="153.515" cy="154.021" fill="#ff4d4d" r="57.116"/></g><path d="m170.297 121.716h-10.387c-4.698 0-8.507 3.809-8.507 8.507v.518c0 6.396 5.185 11.581 11.581 11.581h2.027l-3.052 18.208c-4.057-4.125-10.479-6.802-17.733-6.802-12.277 0-22.229 7.637-22.229 17.058 0 1.851.395 3.628 1.112 5.294.508 1.181 1.658 1.96 2.943 1.96h49.571c1.756 0 3.18-1.424 3.18-3.18v-44.635c.001-4.7-3.808-8.509-8.506-8.509z" fill="#fff"/></g></g><path d="m382.382 156.638c-1.28 0-2.559-.488-3.536-1.465-1.953-1.952-1.953-5.118 0-7.07l10-10c1.953-1.953 5.118-1.953 7.071 0 1.953 1.952 1.953 5.118 0 7.07l-10 10c-.976.976-2.255 1.465-3.535 1.465z" fill="#ff6c6c"/><path d="m91.399 102.938c-1.28 0-2.559-.488-3.536-1.465-1.953-1.952-1.953-5.118 0-7.07l10-10c1.953-1.953 5.118-1.953 7.071 0 1.953 1.952 1.953 5.118 0 7.07l-10 10c-.976.976-2.255 1.465-3.535 1.465z" fill="#6c6cff"/><path d="m323.82 170.531c-2.761 0-5-2.238-5-5 0-3.492-2.841-6.333-6.333-6.333-2.761 0-5-2.238-5-5s2.239-5 5-5c3.492 0 6.333-2.841 6.333-6.333 0-2.762 2.239-5 5-5s5 2.238 5 5c0 3.492 2.841 6.333 6.333 6.333 2.761 0 5 2.238 5 5s-2.239 5-5 5c-3.492 0-6.333 2.841-6.333 6.333 0 2.762-2.239 5-5 5z" fill="#ff9c33"/><path d="m213.746 404.273c-2.761 0-5-2.238-5-5 0-3.492-2.841-6.333-6.333-6.333-2.761 0-5-2.238-5-5s2.239-5 5-5c3.492 0 6.333-2.841 6.333-6.333 0-2.762 2.239-5 5-5s5 2.238 5 5c0 3.492 2.841 6.333 6.333 6.333 2.761 0 5 2.238 5 5s-2.239 5-5 5c-3.492 0-6.333 2.841-6.333 6.333 0 2.762-2.239 5-5 5z" fill="#6c6cff"/><path d="m164.13 448.066c-2.761 0-5-2.238-5-5 0-3.492-2.841-6.333-6.333-6.333-2.761 0-5-2.238-5-5s2.239-5 5-5c3.492 0 6.333-2.842 6.333-6.334 0-2.762 2.239-5 5-5s5 2.238 5 5c0 3.492 2.841 6.334 6.333 6.334 2.761 0 5 2.238 5 5s-2.239 5-5 5c-3.492 0-6.333 2.841-6.333 6.333 0 2.762-2.239 5-5 5z" fill="#ff6c6c"/></g></g></svg>