<svg id="Layer_1" enable-background="new 0 0 512 512" height="512" viewBox="0 0 512 512" width="512" xmlns="http://www.w3.org/2000/svg"><g><path d="m245.002 10.998c-69.775 0-132.737 29.168-177.359 75.976l7.536 345.608c44.041 42.366 103.886 68.42 169.823 68.42 98.346 0 183.142-57.954 222.141-141.565l20.513-137.351c-16.516-119.258-118.852-211.088-242.654-211.088z" fill="#2a428c"/><path d="m468.007 291.347c-7.128-2.708-9.312-11.419-9.322-11.459-1.471-7.14-36.283-175.005-59.296-188.169-6.234-3.566-9.635-7.746-10.107-12.424-.816-8.075 7.286-15.297 7.368-15.369l.217-.191.543-1.066-230.978 17.024c-2.996 2.637-8.806 8.72-8.654 16.173.107 5.222 3.102 10.016 8.91 14.269-2.215 2.228-6.833 7.181-11.261 13.878-8.001 12.102-11.438 24.098-9.939 34.692 1.971 13.932 12.175 25.651 30.332 34.841l38.409 125.44c-4.425 3.708-24.863 22.176-25.12 46.999-.164 15.861 8.025 30.906 24.345 44.742-3.513 2.518-11.104 8.947-11.446 17.706-.164 4.191 1.366 8.291 4.536 12.264l195.767 12.092c32.802 2.026 61.766-21.222 66.886-53.685l17.651-111.917c-7.497 4.658-13.829 6.065-18.841 4.16z" fill="#d3dcfb"/><path d="m443.562 59.267-47.902 3.531c-.001.001-19.706 17.244 2.983 30.223 22.69 12.979 58.573 187.17 58.573 187.17s5.474 22.96 29.326 8.94l24.663-156.371c6.398-40.57-26.683-76.512-67.643-73.493z" fill="#deeeff"/><path d="m41.635 119.35 5.464 281.08h-.003c8.422 11.52 17.822 22.281 28.083 32.152l133.417 8.241c-14.809-16.803 7.363-29.963 7.363-29.963-57.041-46.64 0-91.349 0-91.349l-38.892-127.017c-63.416-31.617-8.03-82.55-8.03-82.55-21.963-14.557 0-30.442 0-30.442l-101.394 7.472c-9.551 10.019-18.251 20.854-26.008 32.376z" fill="#bec8f7"/><path d="m472.804 100.228c-6.943-7.542-16.786-11.441-27.01-10.682h-.001l-279.127 20.573c.008.006.015.011.022.017-2.215 2.228-6.833 7.181-11.261 13.878-8.001 12.102-11.438 24.098-9.939 34.692 1.971 13.932 12.175 25.651 30.332 34.841l38.409 125.44c-4.425 3.708-24.863 22.176-25.12 46.999-.164 15.852 8.017 30.89 24.319 44.719l190.755 11.782c17.259 1.066 32.328-11.018 35.024-28.112l42.009-266.344c1.596-10.127-1.47-20.26-8.412-27.803z" fill="#49b1f7"/><path d="m0 256c0 54.011 17.491 103.929 47.099 144.43l168.861 10.43c-57.041-46.64 0-91.349 0-91.349l-38.892-127.017c-63.416-31.617-8.03-82.55-8.03-82.55l-127.402 9.39c-26.289 39.04-41.636 86.06-41.636 136.666z" fill="#1e9ef4"/><g><path d="m204.561 295.222h-55.108c-7.763 0-14.056-6.293-14.056-14.056s6.293-14.056 14.056-14.056h55.108c7.763 0 14.056 6.293 14.056 14.056s-6.293 14.056-14.056 14.056z" fill="#d3dcfb"/></g><g><path d="m99.404 319.055h-41.293c-7.762 0-14.056-6.293-14.056-14.056v-97.999c0-7.762 6.293-14.056 14.056-14.056h41.293c7.762 0 14.056 6.293 14.056 14.056s-6.293 14.056-14.056 14.056h-27.237v69.888h27.237c7.762 0 14.056 6.293 14.056 14.056-.001 7.762-6.294 14.055-14.056 14.055z" fill="#deeeff"/></g><g><path d="m96.359 270.056h-38.248c-7.763 0-14.056-6.293-14.056-14.056s6.293-14.056 14.056-14.056h38.248c7.762 0 14.056 6.293 14.056 14.056s-6.293 14.056-14.056 14.056z" fill="#deeeff"/></g><g><path d="m283.116 319.507c-17.42 0-33.778-7.027-44.88-19.278-5.213-5.752-4.775-14.641.977-19.854 5.753-5.213 14.64-4.775 19.854.977 5.698 6.289 14.689 10.043 24.049 10.043 8.556 0 14.765-5.113 15.611-9.85 1.119-6.263-8.816-10.446-11.887-11.579-15.391-5.677-29.06-11.762-29.634-12.018-.676-.302-1.329-.657-1.949-1.062-10.988-7.162-16.648-19.722-14.774-32.776 1.991-13.87 12.105-25.161 26.397-29.466 20.918-6.302 40.482 3.49 50.282 9.887 6.501 4.244 8.33 12.953 4.086 19.453-4.243 6.5-12.952 8.33-19.453 4.086-3.586-2.341-16.119-9.731-26.807-6.509-5.416 1.631-6.475 5.12-6.68 6.544-.165 1.149-.136 3.191 1.647 4.742 3.692 1.613 14.754 6.371 26.613 10.746 25.934 9.565 32.415 28.43 29.832 42.894-3.415 19.133-21.619 33.02-43.284 33.02z" fill="#deeeff"/></g><g><path d="m377.468 268.987c-4.747 0-9.173-2.396-11.769-6.371l-31.591-48.382c-4.244-6.5-2.415-15.209 4.085-19.453 6.501-4.246 15.209-2.415 19.454 4.084l19.804 30.33 19.57-30.064c4.235-6.506 12.941-8.347 19.447-4.112s8.347 12.942 4.111 19.448l-31.332 48.132c-2.592 3.982-7.019 6.384-11.769 6.388-.004 0-.007 0-.01 0z" fill="#deeeff"/></g><g><path d="m377.346 319.507c-.012 0-.023 0-.035 0-7.762-.019-14.04-6.327-14.022-14.09l.123-50.52c.019-7.751 6.309-14.022 14.054-14.022h.035c7.762.019 14.04 6.327 14.022 14.09l-.123 50.52c-.018 7.751-6.308 14.022-14.054 14.022z" fill="#deeeff"/></g><g><path d="m215.959 319.51c-5.68.001-11.028-3.468-13.152-9.097l-25.774-68.295-26.026 68.335c-2.763 7.254-10.883 10.895-18.138 8.132-7.254-2.763-10.895-10.884-8.132-18.138l37.138-97.509c.041-.107.083-.212.126-.318 2.514-6.145 8.428-10.121 15.067-10.128h.017c6.633 0 12.547 3.961 15.071 10.096.052.128.103.256.152.385l36.8 97.513c2.741 7.263-.925 15.372-8.187 18.113-1.635.619-3.313.911-4.962.911z" fill="#deeeff"/></g><g fill="#3c58a0"><path d="m334.205 27.759c-27.643-10.814-57.727-16.761-89.203-16.761-49.504 0-95.569 14.695-134.098 39.942 9.74 6.165 21.541 9.144 33.685 7.853 28.5-3.03 92.148-10.125 151.989-19.073 15.52-2.321 27.841-6.589 37.627-11.961z"/><path d="m136.031 475.467c32.823 16.334 69.819 25.535 108.971 25.535 30.556 0 59.797-5.61 86.772-15.829-10.383-12.62-26.153-20.34-43.205-20.34h-120.072c-12.497 0-23.545 4.734-32.466 10.634z"/></g></g></svg>