<?xml version="1.0" encoding="UTF-8"?><svg id="a" xmlns="http://www.w3.org/2000/svg" xmlns:xlink="http://www.w3.org/1999/xlink" viewBox="0 0 1000 1000"><defs><style>.m{fill:url(#l);}.n{fill:url(#c);}.o{fill:url(#f);}.p{fill:url(#g);}.q{fill:url(#b);}.r{fill:url(#i);}.s{fill:url(#h);}.t{fill:url(#d);}.u{fill:url(#e);}.v{fill:url(#j);}.w{fill:url(#k);}</style><linearGradient id="b" x1="407.11" y1="446.37" x2="592.89" y2="446.37" gradientTransform="matrix(1, 0, 0, 1, 0, 0)" gradientUnits="userSpaceOnUse"><stop offset="0" stop-color="#f05a28"/><stop offset="1" stop-color="#ffd52e"/></linearGradient><linearGradient id="c" x1="414.62" y1="447.68" x2="492.04" y2="605.05" gradientTransform="matrix(1, 0, 0, 1, 0, 0)" gradientUnits="userSpaceOnUse"><stop offset="0" stop-color="#6df5ff"/><stop offset="1" stop-color="#0068fc"/></linearGradient><linearGradient id="d" x1="381.66" y1="634.08" x2="667.24" y2="634.08" xlink:href="#b"/><linearGradient id="e" x1="307.31" y1="540.29" x2="459.06" y2="349.42" gradientTransform="matrix(1, 0, 0, 1, 0, 0)" gradientUnits="userSpaceOnUse"><stop offset="0" stop-color="#c300ec"/><stop offset="1" stop-color="#8202ca"/></linearGradient><linearGradient id="f" x1="166.76" y1="243.47" x2="833.24" y2="243.47" xlink:href="#b"/><linearGradient id="g" x1="500" y1="243.47" x2="833.24" y2="243.47" xlink:href="#b"/><linearGradient id="h" x1="222.3" y1="652.7" x2="222.3" y2="356.43" xlink:href="#c"/><linearGradient id="i" x1="500" y1="526.82" x2="592.89" y2="526.82" xlink:href="#e"/><linearGradient id="j" x1="592.89" y1="325.8" x2="592.89" y2="556.19" xlink:href="#c"/><linearGradient id="k" x1="493.32" y1="756.53" x2="172.63" y2="756.53" xlink:href="#e"/><linearGradient id="l" x1="821.45" y1="756.53" x2="521.67" y2="756.53" xlink:href="#e"/></defs><polygon class="q" points="407.11 446.37 500 392.74 592.89 446.37 500 500 407.11 446.37"/><polygon class="n" points="500 607.26 500 500 407.11 446.37 407.11 553.63 500 607.26"/><polygon class="t" points="685.78 607.26 592.89 553.63 500 607.26 407.11 553.63 314.22 607.26 500 714.52 685.78 607.26"/><polygon class="u" points="314.22 607.26 407.11 553.63 407.11 446.37 500 392.74 500 285.48 314.22 392.74 314.22 607.26"/><polygon class="o" points="722.16 371.74 833.24 307.6 500 115.21 166.76 307.6 277.84 371.74 500 243.47 722.16 371.74"/><polygon class="p" points="500 115.21 500 243.47 722.16 371.74 833.24 307.6 500 115.21"/><polygon class="s" points="277.84 628.27 166.76 692.4 166.76 307.6 277.84 371.74 277.84 628.27"/><polygon class="r" points="592.89 553.63 592.89 446.37 500 500 500 607.26 592.89 553.63"/><polygon class="v" points="685.78 607.26 592.89 553.63 592.89 446.37 500 392.74 500 285.48 685.78 392.74 685.78 607.26"/><polygon class="w" points="722.16 628.27 833.24 692.4 500 884.79 166.76 692.4 277.84 628.27 500 756.53 722.16 628.27"/><polygon class="m" points="722.16 628.26 500 756.53 500 884.79 833.24 692.4 722.16 628.26"/></svg>