<?xml version="1.0" standalone="no"?>
<!DOCTYPE svg PUBLIC "-//W3C//DTD SVG 20010904//EN"
 "http://www.w3.org/TR/2001/REC-SVG-20010904/DTD/svg10.dtd">
<svg version="1.0" xmlns="http://www.w3.org/2000/svg"
 width="270.000000pt" height="224.000000pt" viewBox="0 0 270.000000 224.000000"
 preserveAspectRatio="xMidYMid meet">

<g transform="translate(0.000000,224.000000) scale(0.100000,-0.100000)"
fill="#000000" stroke="none">
<path d="M495 2182 c-44 -27 -168 -99 -276 -161 -137 -78 -200 -120 -208 -137
-7 -17 -11 -127 -11 -343 0 -289 2 -321 18 -340 9 -12 121 -82 247 -155 l230
-134 3 -279 c2 -251 4 -282 20 -296 9 -8 138 -86 287 -171 176 -102 280 -156
298 -156 18 0 108 45 248 126 120 69 228 128 238 131 12 3 100 -42 247 -126
149 -86 238 -131 257 -131 18 0 84 32 180 88 84 49 209 121 278 161 83 48 130
81 138 97 16 37 15 640 -2 674 -9 17 -88 69 -247 161 l-235 135 -3 281 c-2
251 -4 282 -20 296 -9 8 -138 86 -287 171 -175 102 -280 156 -298 156 -18 0
-108 -46 -253 -130 -123 -71 -231 -130 -241 -130 -9 0 -117 59 -241 130 -159
92 -234 130 -256 130 -19 -1 -63 -20 -111 -48z m251 -274 c68 -40 124 -76 124
-79 0 -4 -13 -12 -30 -19 -28 -12 -36 -9 -120 39 -49 28 -99 51 -111 51 -12 0
-61 -23 -110 -51 -83 -48 -91 -51 -119 -39 -16 7 -30 16 -30 20 0 10 240 149
258 150 7 0 69 -33 138 -72z m1031 -25 c92 -53 176 -103 186 -111 17 -15 24
-72 9 -72 -4 0 -86 45 -182 101 -124 71 -182 99 -200 97 -14 -2 -237 -126
-497 -276 -259 -150 -477 -272 -485 -272 -7 0 -94 47 -193 104 -177 102 -180
105 -183 140 -2 20 -1 36 3 36 3 0 83 -45 179 -100 95 -55 183 -100 195 -100
12 0 237 124 499 275 262 151 482 275 489 275 6 0 87 -43 180 -97z m-1030 -79
c73 -42 133 -79 133 -83 -1 -11 -252 -151 -272 -151 -11 0 -35 8 -52 19 -17
10 -75 44 -129 76 l-99 57 139 79 c76 43 140 79 142 79 3 0 65 -34 138 -76z
m1040 -30 c102 -59 187 -112 189 -118 3 -7 3 -80 2 -163 l-3 -150 -180 103
c-99 57 -188 104 -197 104 -9 0 -231 -124 -494 -275 -263 -151 -486 -275 -495
-275 -18 0 -338 180 -371 208 -16 13 -18 35 -18 170 0 135 2 153 16 148 8 -3
90 -49 182 -103 94 -54 178 -96 192 -96 14 0 232 120 500 276 261 151 479 276
483 276 5 1 92 -47 194 -105z m-52 -435 c69 -39 125 -75 125 -79 0 -7 -45 -30
-60 -30 -5 0 -47 23 -94 50 -47 28 -95 50 -107 50 -13 0 -63 -22 -111 -50 -48
-27 -94 -50 -100 -50 -7 0 -23 8 -35 18 -23 17 -22 17 105 89 70 40 133 73
140 73 6 0 68 -32 137 -71z m1 -105 c74 -42 134 -79 134 -83 -1 -10 -255 -151
-273 -151 -16 0 -263 136 -272 149 -4 7 258 161 273 161 2 0 64 -34 138 -76z
m-496 -180 l131 -76 -31 -19 -31 -19 -97 55 c-53 30 -103 55 -110 55 -8 0 -57
-25 -109 -56 l-94 -55 -31 19 c-23 15 -27 21 -17 28 39 25 245 143 251 143 4
1 66 -33 138 -75z m1030 -25 c96 -55 181 -106 188 -113 8 -7 12 -27 10 -44
l-3 -31 -180 104 c-99 58 -186 105 -194 105 -7 0 -228 -124 -491 -275 -262
-151 -486 -275 -498 -275 -11 0 -101 46 -199 103 -177 102 -178 103 -181 140
-2 20 -1 37 2 37 3 0 82 -45 177 -101 96 -56 185 -101 200 -101 17 -1 187 92
505 275 264 152 481 277 484 277 3 0 84 -45 180 -101z m-1093 -43 c32 -18 91
-52 132 -76 l73 -42 -88 -52 c-49 -29 -112 -65 -140 -81 l-52 -29 -136 79
c-82 46 -134 81 -128 87 19 19 248 147 264 148 9 0 43 -15 75 -34z m1104 -67
c96 -55 180 -106 187 -111 9 -8 12 -54 12 -169 l0 -158 -177 102 c-98 57 -186
106 -196 110 -23 9 -2 20 -540 -290 -252 -146 -465 -262 -472 -259 -26 10
-350 197 -363 210 -9 9 -12 52 -10 168 l3 156 180 -104 c99 -57 188 -104 198
-104 10 0 232 124 495 275 262 151 484 275 493 275 9 0 95 -45 190 -101z m-51
-435 l131 -77 -31 -19 -31 -18 -97 55 c-53 30 -103 55 -112 55 -8 0 -57 -25
-109 -54 -91 -53 -95 -54 -123 -40 -15 8 -28 18 -28 22 0 7 249 152 262 152 3
0 65 -34 138 -76z m10 -110 c72 -42 130 -77 128 -79 -14 -11 -269 -155 -275
-155 -12 0 -273 151 -273 158 1 11 253 152 272 152 9 0 76 -34 148 -76z"/>
</g>
</svg>
