<svg id="Capa_1" enable-background="new 0 0 512 512" height="512" viewBox="0 0 512 512" width="512" xmlns="http://www.w3.org/2000/svg"><g><g><g><path d="m383.078 149.208c-1.303.699-2.789 1.098-4.368 1.098h-7.08v37.608l.847.153c57.578 10.395 99.368 60.475 99.368 119.077 0 66.724-54.284 121.009-121.009 121.009-27.049 0-52.631-8.731-73.981-25.251l-.278-.215h-55.532c29.346 39.798 76.55 65.621 129.791 65.621 89.009 0 161.164-72.156 161.164-161.164 0-77.966-55.364-142.999-128.922-157.936z" fill="#fd8087"/></g></g><g><g><path d="m383.078 149.208c-1.303.699-2.789 1.098-4.368 1.098h-7.08v1.186c68.686 18.449 119.251 81.142 119.251 155.652 0 85.47-66.536 155.388-150.635 160.813 3.501.227 7.031.351 10.59.351 89.009 0 161.164-72.156 161.164-161.164 0-77.966-55.364-142.999-128.922-157.936z" fill="#fe646f"/></g></g><g><g><g><path d="m330.042 150.306h-7.081c-5.112 0-9.272-4.159-9.272-9.272v-6.719h-287.819v44.848h304.172z" fill="#6354b1"/></g><g><path d="m322.961 150.306c-5.112 0-9.272-4.159-9.272-9.272v-6.719h-27.814v44.848h44.167v-28.857z" fill="#54469c"/></g><g><path d="m313.69 125.338c0-5.113 4.159-9.272 9.272-9.272h42.456v-62.072c0-5.689-4.612-10.302-10.302-10.302h-344.814c-5.69 0-10.302 4.612-10.302 10.302v71.559c0 5.69 4.612 10.302 10.302 10.302h303.388z" fill="#8379c1"/></g><g><g><path d="m355.115 43.692h-42.753c5.69 0 10.302 4.612 10.302 10.302v62.088c.099-.003.196-.015.297-.015h42.456v-62.073c0-5.69-4.612-10.302-10.302-10.302z" fill="#6e61b6"/></g></g><g><path d="m30.905 101.859v-24.171c0-1.707 1.384-3.091 3.091-3.091h24.171c1.707 0 3.091 1.384 3.091 3.091v24.171c0 1.707-1.384 3.091-3.091 3.091h-24.171c-1.707 0-3.091-1.384-3.091-3.091z" fill="#05e39c"/></g><g><path d="m90.141 101.859v-24.171c0-1.707 1.384-3.091 3.091-3.091h24.171c1.707 0 3.091 1.384 3.091 3.091v24.171c0 1.707-1.384 3.091-3.091 3.091h-24.172c-1.706 0-3.09-1.384-3.09-3.091z" fill="#05e39c"/></g><g><g><path d="m315.585 97.273h-145.09c-4.142 0-7.5-3.357-7.5-7.5s3.358-7.5 7.5-7.5h145.09c4.142 0 7.5 3.357 7.5 7.5s-3.357 7.5-7.5 7.5z" fill="#54469c"/></g></g></g><g><g><path d="m229.826 307.144c0-13.55 2.239-26.643 6.386-38.897h-210.342v44.848h204.104c-.096-1.973-.148-3.956-.148-5.951z" fill="#6354b1"/></g><g><path d="m329.195 188.066.847-.153v-10.29h-319.74c-5.69 0-10.302 4.613-10.302 10.302v71.559c0 5.689 4.612 10.302 10.302 10.302h225.401c13.421-41.487 48.672-73.628 93.492-81.72z" fill="#8379c1"/></g><path d="m260.015 216.268c-.304-.037-.611-.063-.924-.063h-88.595c-4.142 0-7.5 3.357-7.5 7.5s3.358 7.5 7.5 7.5h76.699c3.893-5.3 8.177-10.297 12.82-14.937z" fill="#54469c"/></g><g><g><path d="m229.915 311.555h-219.613c-5.69 0-10.302 4.612-10.302 10.302v71.559c0 5.69 4.612 10.302 10.302 10.302h267.704c-28.148-21.281-46.736-54.562-48.091-92.163z" fill="#8379c1"/></g><path d="m229.7 350.137h-59.205c-4.142 0-7.5 3.357-7.5 7.5s3.358 7.5 7.5 7.5h65.648c-2.454-4.833-4.607-9.842-6.443-15z" fill="#54469c"/></g></g><g><path d="m329.012 150.306v37.805c7.081-1.295 14.374-1.976 21.824-1.976s14.742.681 21.824 1.976v-37.805z" fill="#cecece"/></g><g><g><path d="m351.157 150.306v35.833c7.338.02 14.524.696 21.503 1.973v-37.805h-21.503z" fill="#bfbfbf"/></g></g><g><path d="m378.71 115.037h-55.749c-5.69 0-10.302 4.612-10.302 10.302v15.695c0 5.69 4.612 10.302 10.302 10.302h55.749c5.69 0 10.302-4.612 10.302-10.302v-15.695c0-5.69-4.612-10.302-10.302-10.302z" fill="#fd8087"/></g><g><path d="m378.711 115.037h-32.055c5.69 0 10.302 4.612 10.302 10.302v15.695c0 5.69-4.612 10.302-10.302 10.302h32.055c5.69 0 10.302-4.612 10.302-10.302v-15.695c-.001-5.69-4.613-10.302-10.302-10.302z" fill="#fe646f"/></g><g><g><g><circle cx="350.836" cy="307.144" fill="#fff" r="122.04"/></g></g><g><path d="m350.836 185.104c-5.506 0-10.924.371-16.236 1.077 59.724 7.941 105.803 59.067 105.803 120.962s-46.079 113.022-105.803 120.962c5.312.706 10.731 1.077 16.236 1.077 67.401 0 122.04-54.639 122.04-122.04s-54.64-122.038-122.04-122.038z" fill="#f9f3f1"/></g><g><g><g><path d="m350.836 436.684c-71.429 0-129.54-58.111-129.54-129.54 0-71.428 58.111-129.539 129.54-129.539 71.428 0 129.54 58.111 129.54 129.539-.001 71.428-58.112 129.54-129.54 129.54zm0-244.08c-63.158 0-114.54 51.382-114.54 114.539s51.382 114.54 114.54 114.54c63.157 0 114.54-51.383 114.54-114.54s-51.383-114.539-114.54-114.539z" fill="#ffb09e"/></g></g></g><g fill="#05e39c"><path d="m274.743 307.624c.233.021.463.031.692.031 3.833 0 7.104-2.924 7.46-6.816.273-2.985.747-5.976 1.409-8.887.918-4.039-1.612-8.058-5.652-8.976-4.038-.918-8.058 1.613-8.975 5.651-.808 3.555-1.386 7.203-1.719 10.844-.378 4.126 2.66 7.776 6.785 8.153z"/><path d="m287.195 331.793c-1.08-2.786-1.984-5.674-2.687-8.584-.972-4.025-5.023-6.503-9.051-5.529-4.027.972-6.502 5.024-5.53 9.051.858 3.554 1.962 7.081 3.281 10.484 1.152 2.971 3.989 4.791 6.995 4.791.901 0 1.818-.164 2.708-.509 3.864-1.497 5.781-5.842 4.284-9.704z"/><path d="m298.625 351.068c-2.667-3.169-7.399-3.573-10.568-.905-3.168 2.668-3.573 7.399-.905 10.567 2.35 2.79 4.908 5.452 7.604 7.912 1.438 1.312 3.248 1.959 5.053 1.959 2.035 0 4.063-.823 5.542-2.445 2.792-3.06 2.574-7.804-.486-10.596-2.212-2.018-4.311-4.203-6.24-6.492z"/><path d="m282.489 273.645c1.231.764 2.598 1.128 3.947 1.128 2.509 0 4.96-1.258 6.38-3.546 1.577-2.542 3.341-5.006 5.242-7.323 2.627-3.203 2.16-7.929-1.042-10.556-3.204-2.628-7.928-2.16-10.555 1.042-2.317 2.825-4.467 5.829-6.39 8.927-2.184 3.519-1.101 8.143 2.418 10.328z"/><path d="m322.864 244.893c3.777-1.701 5.459-6.142 3.758-9.918-1.702-3.777-6.141-5.458-9.919-3.758-3.324 1.497-6.583 3.232-9.686 5.156-3.52 2.184-4.604 6.808-2.42 10.327 1.42 2.289 3.872 3.548 6.381 3.548 1.349 0 2.715-.364 3.946-1.128 2.544-1.577 5.215-3 7.94-4.227z"/><path d="m426.563 299.644c-4.142 0-7.5 3.357-7.5 7.5 0 3.009-.197 6.033-.586 8.989-.54 4.106 2.351 7.874 6.458 8.414.332.044.662.065.988.065 3.707 0 6.93-2.748 7.427-6.522.474-3.603.714-7.286.714-10.946-.001-4.143-3.359-7.5-7.501-7.5z"/><path d="m332.155 372.784c-2.876-.816-5.728-1.836-8.476-3.029-3.8-1.646-8.216.094-9.867 3.894-1.649 3.799.094 8.217 3.893 9.866 3.355 1.456 6.837 2.701 10.35 3.699.686.194 1.375.287 2.054.287 3.268 0 6.273-2.153 7.21-5.452 1.133-3.985-1.179-8.132-5.164-9.265z"/><path d="m391.943 361.603c-2.387 1.805-4.917 3.468-7.519 4.943-3.604 2.042-4.869 6.619-2.827 10.223 1.38 2.436 3.919 3.803 6.532 3.803 1.253 0 2.523-.314 3.691-.977 3.174-1.798 6.259-3.827 9.17-6.029 3.304-2.498 3.957-7.202 1.458-10.506-2.498-3.304-7.201-3.958-10.505-1.457z"/><path d="m421.987 334.196c-3.705-1.847-8.209-.343-10.06 3.362-1.336 2.678-2.865 5.293-4.543 7.771-2.322 3.43-1.424 8.093 2.005 10.415 1.289.873 2.751 1.291 4.198 1.291 2.405 0 4.767-1.154 6.217-3.296 2.047-3.023 3.913-6.215 5.544-9.483 1.851-3.706.345-8.21-3.361-10.06z"/><path d="m344.336 224.186c-.391.03-.786.045-1.175.081-4.125.378-7.162 4.028-6.784 8.153.357 3.893 3.626 6.816 7.46 6.816.165 0 .332-.012.499-.023z"/><path d="m363.381 374.221c-2.934.545-5.942.9-8.941 1.057-4.137.216-7.315 3.744-7.099 7.881.209 4.004 3.52 7.109 7.483 7.109.131 0 .264-.003.397-.01 3.654-.191 7.321-.625 10.899-1.289 4.072-.757 6.761-4.671 6.004-8.743-.756-4.074-4.671-6.764-8.743-6.005z"/></g><path d="m350.836 286.239c2.646 0 5.168.514 7.5 1.415v-66.516c0-4.143-3.358-7.5-7.5-7.5s-7.5 3.357-7.5 7.5v66.516c2.332-.901 4.854-1.415 7.5-1.415z" fill="#fd4755"/><g><g><circle cx="350.836" cy="307.144" fill="#fd8087" r="21.905"/></g></g><g><path d="m350.836 285.239c-3.894 0-7.543 1.027-10.711 2.808 6.676 3.753 11.193 10.893 11.193 19.097s-4.517 15.344-11.193 19.097c3.168 1.781 6.818 2.808 10.711 2.808 12.098 0 21.905-9.807 21.905-21.904s-9.808-21.906-21.905-21.906z" fill="#fe646f"/></g></g><g><g><path d="m30.905 235.79v-24.171c0-1.707 1.384-3.091 3.091-3.091h24.171c1.707 0 3.091 1.384 3.091 3.091v24.171c0 1.707-1.384 3.091-3.091 3.091h-24.171c-1.707-.001-3.091-1.384-3.091-3.091z" fill="#fff"/></g><g><path d="m90.141 235.79v-24.171c0-1.707 1.384-3.091 3.091-3.091h24.171c1.707 0 3.091 1.384 3.091 3.091v24.171c0 1.707-1.384 3.091-3.091 3.091h-24.172c-1.706-.001-3.09-1.384-3.09-3.091z" fill="#fff"/></g></g><g><g><path d="m30.905 369.721v-24.171c0-1.707 1.384-3.091 3.091-3.091h24.171c1.707 0 3.091 1.384 3.091 3.091v24.171c0 1.707-1.384 3.091-3.091 3.091h-24.171c-1.707 0-3.091-1.384-3.091-3.091z" fill="#05e39c"/></g><g><path d="m90.141 369.721v-24.171c0-1.707 1.384-3.091 3.091-3.091h24.171c1.707 0 3.091 1.384 3.091 3.091v24.171c0 1.707-1.384 3.091-3.091 3.091h-24.172c-1.706 0-3.09-1.384-3.09-3.091z" fill="#05e39c"/></g></g></g></svg>