<svg height="511pt" viewBox="-31 0 511 511.9997" width="511pt" xmlns="http://www.w3.org/2000/svg"><path d="m344.265625 512c-14.710937 0-29.089844-7.425781-37.304687-20.875l-112.527344-184.179688c-2.09375-3.425781-2.738282-7.546874-1.796875-11.449218.945312-3.90625 3.398437-7.273438 6.824219-9.367188l48.621093-29.707031c3.429688-2.09375 7.546875-2.742187 11.453125-1.796875 3.902344.945312 7.273438 3.398438 9.367188 6.824219l112.523437 184.183593c6.078125 9.945313 7.914063 21.660157 5.179688 32.988282s-9.71875 20.914062-19.664063 26.988281c-7.082031 4.328125-14.925781 6.390625-22.675781 6.390625zm0 0" fill="#ffbc36"/><path d="m64.152344 512c-7.75 0-15.59375-2.0625-22.675782-6.390625-9.945312-6.074219-16.929687-15.660156-19.667968-26.988281-2.734375-11.328125-.894532-23.042969 5.179687-32.988282l112.527344-184.179687c4.359375-7.136719 13.679687-9.386719 20.816406-5.03125l48.621094 29.707031c3.429687 2.09375 5.882813 5.464844 6.828125 9.367188.941406 3.902344.292969 8.023437-1.800781 11.449218l-112.523438 184.179688c-8.21875 13.449219-22.59375 20.875-37.304687 20.875zm0 0" fill="#ffe45c"/><path d="m204.207031 42.589844c-112.324219 0-203.707031 91.382812-203.707031 203.707031s91.382812 203.707031 203.707031 203.707031c112.328125 0 203.707031-91.382812 203.707031-203.707031s-91.378906-203.707031-203.707031-203.707031zm0 0" fill="#19cffc"/><path d="m204.207031 42.589844v407.414062c112.328125 0 203.710938-91.382812 203.710938-203.707031s-91.382813-203.707031-203.710938-203.707031zm0 0" fill="#4ab8f7"/><path d="m204.207031 380.542969c-74.023437 0-134.246093-60.222657-134.246093-134.246094s60.222656-134.246094 134.246093-134.246094c74.023438 0 134.246094 60.222657 134.246094 134.246094s-60.222656 134.246094-134.246094 134.246094zm0 0" fill="#fff"/><path d="m204.207031 112.050781v268.492188c74.023438 0 134.246094-60.222657 134.246094-134.246094s-60.222656-134.246094-134.246094-134.246094zm0 0" fill="#dbeeff"/><path d="m204.207031 305.570312c-32.683593 0-59.273437-26.589843-59.273437-59.273437 0-32.679687 26.589844-59.269531 59.273437-59.269531 32.683594 0 59.273438 26.585937 59.273438 59.269531 0 32.6875-26.589844 59.273437-59.273438 59.273437zm0 0" fill="#fe6a16"/><path d="m204.207031 187.023438v118.546874c32.683594 0 59.273438-26.589843 59.273438-59.273437s-26.589844-59.273437-59.273438-59.273437zm0 0" fill="#ff432e"/><path d="m204.207031 261.441406c-3.875 0-7.75-1.476562-10.707031-4.4375-5.914062-5.914062-5.914062-15.5 0-21.414062l133.3125-133.308594c5.914062-5.914062 15.5-5.914062 21.414062 0 5.914063 5.914062 5.914063 15.5 0 21.414062l-133.308593 133.3125c-2.957031 2.953126-6.835938 4.433594-10.710938 4.433594zm0 0" fill="#27488f"/><path d="m326.8125 102.28125-122.605469 122.601562v36.558594c3.875 0 7.753907-1.480468 10.710938-4.4375l133.308593-133.308594c5.914063-5.914062 5.914063-15.5 0-21.414062-5.914062-5.914062-15.5-5.914062-21.414062 0zm0 0" fill="#12254c"/><path d="m449.269531 77.078125c-1.683593-5.378906-6.210937-9.375-11.757812-10.378906l-45.460938-8.222657-8.238281-46.003906c-.996094-5.550781-4.992188-10.089844-10.371094-11.777344-5.382812-1.6875-11.253906-.246093-15.242187 3.742188l-41.738281 41.734375c-3.503907 3.507813-5.074219 8.503906-4.199219 13.378906l10.097656 56.363281c1.113281 6.226563 5.984375 11.105469 12.207031 12.230469l55.816406 10.097657c.898438.164062 1.800782.242187 2.695313.242187 3.980469 0 7.84375-1.570313 10.707031-4.4375l41.738282-41.738281c3.984374-3.984375 5.429687-9.851563 3.746093-15.230469zm0 0" fill="#ff432e"/></svg>